<?xml version="1.0" encoding="UTF-8"?>
<svg width="395.11mm" height="245.53mm" baseProfile="tiny" version="1.2" viewBox="0 0 1120 696" xmlns="http://www.w3.org/2000/svg">
 <title>Qt SVG Document</title>
 <desc>Generated with Qt</desc>
 <g fill="none" fill-rule="evenodd" font-family="Sans" font-weight="400">
  <g transform="scale(1.0018)" font-size="10" stroke="#000" stroke-linecap="round" stroke-linejoin="round">
   <polyline points="95.5 606.5 102.5 606.5"/>
   <polyline points="1087.5 606.5 1080.5 606.5"/>
  </g>
  <g transform="matrix(1.0018 0 0 1.0018 29.052 613.6)" font-size="9" stroke="#000" stroke-linecap="square" stroke-linejoin="bevel">
   <text fill="#000000" font-family="Sans" font-size="9" font-weight="400" stroke="none" xml:space="preserve">-80000</text>
  </g>
  <g transform="scale(1.0018)" font-size="10" stroke="#000" stroke-linecap="round" stroke-linejoin="round">
   <polyline points="95.5 542.5 102.5 542.5"/>
   <polyline points="1087.5 542.5 1080.5 542.5"/>
  </g>
  <g transform="matrix(1.0018 0 0 1.0018 29.052 549.48)" font-size="9" stroke="#000" stroke-linecap="square" stroke-linejoin="bevel">
   <text fill="#000000" font-family="Sans" font-size="9" font-weight="400" stroke="none" xml:space="preserve">-60000</text>
  </g>
  <g transform="scale(1.0018)" font-size="10" stroke="#000" stroke-linecap="round" stroke-linejoin="round">
   <polyline points="95.5 478.5 102.5 478.5"/>
   <polyline points="1087.5 478.5 1080.5 478.5"/>
  </g>
  <g transform="matrix(1.0018 0 0 1.0018 29.052 485.37)" font-size="9" stroke="#000" stroke-linecap="square" stroke-linejoin="bevel">
   <text fill="#000000" font-family="Sans" font-size="9" font-weight="400" stroke="none" xml:space="preserve">-40000</text>
  </g>
  <g transform="scale(1.0018)" font-size="10" stroke="#000" stroke-linecap="round" stroke-linejoin="round">
   <polyline points="95.5 414.5 102.5 414.5"/>
   <polyline points="1087.5 414.5 1080.5 414.5"/>
  </g>
  <g transform="matrix(1.0018 0 0 1.0018 29.052 421.25)" font-size="9" stroke="#000" stroke-linecap="square" stroke-linejoin="bevel">
   <text fill="#000000" font-family="Sans" font-size="9" font-weight="400" stroke="none" xml:space="preserve">-20000</text>
  </g>
  <g transform="scale(1.0018)" font-size="10" stroke="#000" stroke-linecap="round" stroke-linejoin="round">
   <polyline points="95.5 351.5 102.5 351.5"/>
   <polyline points="1087.5 351.5 1080.5 351.5"/>
  </g>
  <g transform="matrix(1.0018 0 0 1.0018 70.125 357.14)" font-size="9" stroke="#000" stroke-linecap="square" stroke-linejoin="bevel">
   <text fill="#000000" font-family="Sans" font-size="9" font-weight="400" stroke="none" xml:space="preserve"> 0</text>
  </g>
  <g transform="scale(1.0018)" font-size="10" stroke="#000" stroke-linecap="round" stroke-linejoin="round">
   <polyline points="95.5 287.5 102.5 287.5"/>
   <polyline points="1087.5 287.5 1080.5 287.5"/>
  </g>
  <g transform="matrix(1.0018 0 0 1.0018 30.054 293.02)" font-size="9" stroke="#000" stroke-linecap="square" stroke-linejoin="bevel">
   <text fill="#000000" font-family="Sans" font-size="9" font-weight="400" stroke="none" xml:space="preserve"> 20000</text>
  </g>
  <g transform="scale(1.0018)" font-size="10" stroke="#000" stroke-linecap="round" stroke-linejoin="round">
   <polyline points="95.5 223.5 102.5 223.5"/>
   <polyline points="1087.5 223.5 1080.5 223.5"/>
  </g>
  <g transform="matrix(1.0018 0 0 1.0018 30.054 228.91)" font-size="9" stroke="#000" stroke-linecap="square" stroke-linejoin="bevel">
   <text fill="#000000" font-family="Sans" font-size="9" font-weight="400" stroke="none" xml:space="preserve"> 40000</text>
  </g>
  <g transform="scale(1.0018)" font-size="10" stroke="#000" stroke-linecap="round" stroke-linejoin="round">
   <polyline points="95.5 159.5 102.5 159.5"/>
   <polyline points="1087.5 159.5 1080.5 159.5"/>
  </g>
  <g transform="matrix(1.0018 0 0 1.0018 30.054 164.79)" font-size="9" stroke="#000" stroke-linecap="square" stroke-linejoin="bevel">
   <text fill="#000000" font-family="Sans" font-size="9" font-weight="400" stroke="none" xml:space="preserve"> 60000</text>
  </g>
  <g transform="scale(1.0018)" font-size="10" stroke="#000" stroke-linecap="round" stroke-linejoin="round">
   <polyline points="95.5 95.5 102.5 95.5"/>
   <polyline points="1087.5 95.5 1080.5 95.5"/>
  </g>
  <g transform="matrix(1.0018 0 0 1.0018 30.054 101.68)" font-size="9" stroke="#000" stroke-linecap="square" stroke-linejoin="bevel">
   <text fill="#000000" font-family="Sans" font-size="9" font-weight="400" stroke="none" xml:space="preserve"> 80000</text>
  </g>
  <g transform="scale(1.0018)" font-size="10" stroke="#000" stroke-linecap="round" stroke-linejoin="round">
   <polyline points="95.5 31.5 102.5 31.5"/>
   <polyline points="1087.5 31.5 1080.5 31.5"/>
  </g>
  <g transform="matrix(1.0018 0 0 1.0018 20.036 37.567)" font-size="9" stroke="#000" stroke-linecap="square" stroke-linejoin="bevel">
   <text fill="#000000" font-family="Sans" font-size="9" font-weight="400" stroke="none" xml:space="preserve"> 100000</text>
  </g>
  <g transform="scale(1.0018)" font-size="10" stroke="#000" stroke-linecap="round" stroke-linejoin="round">
   <polyline points="139.5 655.5 139.5 648.5"/>
   <polyline points="139.5 19.5 139.5 26.5"/>
  </g>
  <g transform="matrix(1.0018 0 0 1.0018 117.71 681.72)" font-size="9" stroke="#000" stroke-linecap="square" stroke-linejoin="bevel">
   <text fill="#000000" font-family="Sans" font-size="9" font-weight="400" stroke="none" xml:space="preserve"> 2500</text>
  </g>
  <g transform="scale(1.0018)" font-size="10" stroke="#000" stroke-linecap="round" stroke-linejoin="round">
   <polyline points="258.5 655.5 258.5 648.5"/>
   <polyline points="258.5 19.5 258.5 26.5"/>
  </g>
  <g transform="matrix(1.0018 0 0 1.0018 235.92 681.72)" font-size="9" stroke="#000" stroke-linecap="square" stroke-linejoin="bevel">
   <text fill="#000000" font-family="Sans" font-size="9" font-weight="400" stroke="none" xml:space="preserve"> 2550</text>
  </g>
  <g transform="scale(1.0018)" font-size="10" stroke="#000" stroke-linecap="round" stroke-linejoin="round">
   <polyline points="376.5 655.5 376.5 648.5"/>
   <polyline points="376.5 19.5 376.5 26.5"/>
  </g>
  <g transform="matrix(1.0018 0 0 1.0018 355.13 681.72)" font-size="9" stroke="#000" stroke-linecap="square" stroke-linejoin="bevel">
   <text fill="#000000" font-family="Sans" font-size="9" font-weight="400" stroke="none" xml:space="preserve"> 2600</text>
  </g>
  <g transform="scale(1.0018)" font-size="10" stroke="#000" stroke-linecap="round" stroke-linejoin="round">
   <polyline points="495.5 655.5 495.5 648.5"/>
   <polyline points="495.5 19.5 495.5 26.5"/>
  </g>
  <g transform="matrix(1.0018 0 0 1.0018 473.34 681.72)" font-size="9" stroke="#000" stroke-linecap="square" stroke-linejoin="bevel">
   <text fill="#000000" font-family="Sans" font-size="9" font-weight="400" stroke="none" xml:space="preserve"> 2650</text>
  </g>
  <g transform="scale(1.0018)" font-size="10" stroke="#000" stroke-linecap="round" stroke-linejoin="round">
   <polyline points="614.5 655.5 614.5 648.5"/>
   <polyline points="614.5 19.5 614.5 26.5"/>
  </g>
  <g transform="matrix(1.0018 0 0 1.0018 592.56 681.72)" font-size="9" stroke="#000" stroke-linecap="square" stroke-linejoin="bevel">
   <text fill="#000000" font-family="Sans" font-size="9" font-weight="400" stroke="none" xml:space="preserve"> 2700</text>
  </g>
  <g transform="scale(1.0018)" font-size="10" stroke="#000" stroke-linecap="round" stroke-linejoin="round">
   <polyline points="732.5 655.5 732.5 648.5"/>
   <polyline points="732.5 19.5 732.5 26.5"/>
  </g>
  <g transform="matrix(1.0018 0 0 1.0018 711.77 681.72)" font-size="9" stroke="#000" stroke-linecap="square" stroke-linejoin="bevel">
   <text fill="#000000" font-family="Sans" font-size="9" font-weight="400" stroke="none" xml:space="preserve"> 2750</text>
  </g>
  <g transform="scale(1.0018)" font-size="10" stroke="#000" stroke-linecap="round" stroke-linejoin="round">
   <polyline points="851.5 655.5 851.5 648.5"/>
   <polyline points="851.5 19.5 851.5 26.5"/>
  </g>
  <g transform="matrix(1.0018 0 0 1.0018 829.98 681.72)" font-size="9" stroke="#000" stroke-linecap="square" stroke-linejoin="bevel">
   <text fill="#000000" font-family="Sans" font-size="9" font-weight="400" stroke="none" xml:space="preserve"> 2800</text>
  </g>
  <g transform="scale(1.0018)" font-size="10" stroke="#000" stroke-linecap="round" stroke-linejoin="round">
   <polyline points="969.5 655.5 969.5 648.5"/>
   <polyline points="969.5 19.5 969.5 26.5"/>
  </g>
  <g transform="matrix(1.0018 0 0 1.0018 949.2 681.72)" font-size="9" stroke="#000" stroke-linecap="square" stroke-linejoin="bevel">
   <text fill="#000000" font-family="Sans" font-size="9" font-weight="400" stroke="none" xml:space="preserve"> 2850</text>
  </g>
  <g transform="scale(1.0018)" font-size="10" stroke="#000" stroke-linecap="round" stroke-linejoin="round">
   <polyline points="95.5 19.5 95.5 655.5 1087.5 655.5 1087.5 19.5 95.5 19.5" fill="none"/>
  </g>
  <g transform="matrix(1.0018 0 0 1.0018 954.7 41.574)" font-size="9" stroke="#000" stroke-linecap="square" stroke-linejoin="bevel">
   <text fill="#000000" font-family="Sans" font-size="9" font-weight="400" stroke="none" xml:space="preserve">integer</text>
  </g>
  <g transform="scale(1.0018)" font-size="10" stroke="#ff6060" stroke-linecap="round" stroke-linejoin="round">
   <path d="m1020.5 36.5h47" fill-rule="evenodd"/>
   <polyline points="95 351 96.9 351 99.3 351 101.7 351 104.1 351 106.4 351 108.8 351 111.2 351 113.5 351 115.9 351 118.3 351 120.7 351 123 351 125.4 351 127.8 351 130.1 351 132.5 371.4 134.9 432.8 137.3 453.2 139.6 473.7 142 494.1 144.4 494.1 146.7 514.5 149.1 514.5 151.5 514.5 153.9 535 156.2 514.5 158.6 535 161 535 163.4 535 165.7 535 168.1 535 170.5 535 172.8 535 175.2 535 177.6 535 180 535 182.3 555.4 184.7 535 187.1 535 189.4 535 191.8 535 194.2 555.4 196.6 535 198.9 535 201.3 555.4 203.7 535 206 535 208.4 555.4 210.8 535 213.2 535 215.5 555.4 217.9 535 220.3 555.4 222.7 535 225 555.4 227.4 535 229.8 535 232.1 555.4 234.5 535 236.9 555.4 239.3 535 241.6 555.4 244 535 246.4 555.4 248.7 535 251.1 555.4 253.5 535 255.9 555.4 258.2 535 260.6 555.4 263 535 265.3 555.4 267.7 535 270.1 555.4 272.5 555.4 274.8 535 277.2 535 279.6 555.4 282 555.4 284.3 555.4 286.7 575.9 289.1 575.9 291.4 596.3 293.8 616.8 296.2 596.3 298.6 616.8 300.9 616.8 303.3 596.3 305.7 616.8 308 616.8 310.4 616.8 312.8 596.3 315.2 616.8 317.5 616.8 319.9 616.8 322.3 616.8 324.6 616.8 327 616.8 329.4 616.8 331.8 616.8 334.1 616.8 336.5 616.8 338.9 596.3 341.3 637.2 343.6 596.3 346 637.2 348.4 596.3 350.7 616.8 353.1 616.8 355.5 616.8 357.9 616.8 360.2 616.8 362.6 616.8 365 616.8 367.3 616.8 369.7 616.8 372.1 616.8 374.5 616.8 376.8 616.8 379.2 616.8 381.6 616.8 383.9 616.8 386.3 616.8 388.7 637.2 391.1 616.8 393.4 616.8 395.8 616.8 398.2 616.8 400.6 616.8 402.9 616.8 405.3 616.8 407.7 616.8 410 637.2 412.4 616.8 414.8 616.8 417.2 616.8 419.5 616.8 421.9 616.8 424.3 616.8 426.6 637.2 429 616.8 431.4 616.8 433.8 616.8 436.1 596.3 438.5 555.4 440.9 514.5 443.2 494.1 445.6 494.1 448 473.7 450.4 453.2 452.7 473.7 455.1 453.2 457.5 453.2 459.9 473.7 462.2 453.2 464.6 453.2 467 453.2 469.3 453.2 471.7 453.2 474.1 453.2 476.5 453.2 478.8 453.2 481.2 453.2 483.6 453.2 485.9 453.2 488.3 453.2 490.7 453.2 493.1 453.2 495.4 453.2 497.8 453.2 500.2 453.2 502.5 453.2 504.9 473.7 507.3 453.2 509.7 453.2 512 453.2 514.4 453.2 516.8 453.2 519.2 453.2 521.5 453.2 523.9 453.2 526.3 473.7 528.6 453.2 531 453.2 533.4 453.2 535.8 453.2 538.1 453.2 540.5 453.2 542.9 473.7 545.2 453.2 547.6 453.2 550 453.2 552.4 453.2 554.7 453.2 557.1 453.2 559.5 473.7 561.8 453.2 564.2 453.2 566.6 453.2 569 453.2 571.3 473.7 573.7 453.2 576.1 453.2 578.5 473.7 580.8 453.2 583.2 453.2 585.6 453.2 587.9 494.1 590.3 514.5 592.7 555.4 595.1 575.9 597.4 596.3 599.8 596.3 602.2 596.3 604.5 616.8 606.9 596.3 609.3 616.8 611.7 596.3 614 616.8 616.4 596.3 618.8 616.8 621.1 616.8 623.5 616.8 625.9 596.3 628.3 616.8 630.6 616.8 633 616.8 635.4 596.3 637.8 616.8 640.1 616.8 642.5 596.3 644.9 616.8 647.2 616.8 649.6 616.8 652 616.8 654.4 596.3 656.7 616.8 659.1 616.8 661.5 596.3 663.8 616.8 666.2 616.8 668.6 616.8 671 616.8 673.3 596.3 675.7 616.8 678.1 616.8 680.4 616.8 682.8 616.8 685.2 616.8 687.6 616.8 689.9 596.3 692.3 616.8 694.7 616.8 697.1 616.8 699.4 616.8 701.8 616.8 704.2 616.8 706.5 596.3 708.9 616.8 711.3 616.8 713.7 616.8 716 616.8 718.4 616.8 720.8 616.8 723.1 596.3 725.5 637.2 727.9 596.3 730.3 616.8 732.6 616.8 735 616.8 737.4 616.8 739.7 596.3 742.1 535 744.5 535 746.9 473.7 749.2 494.1 751.6 473.7 754 453.2 756.4 473.7 758.7 453.2 761.1 453.2 763.5 453.2 765.8 453.2 768.2 473.7 770.6 453.2 773 453.2 775.3 453.2 777.7 453.2 780.1 453.2 782.4 453.2 784.8 453.2 787.2 453.2 789.6 453.2 791.9 453.2 794.3 453.2 796.7 453.2 799 453.2 801.4 453.2 803.8 453.2 806.2 453.2 808.5 453.2 810.9 453.2 813.3 473.7 815.7 453.2 818 453.2 820.4 453.2 822.8 453.2 825.1 453.2 827.5 453.2 829.9 453.2 832.3 453.2 834.6 473.7 837 432.8 839.4 473.7 841.7 453.2 844.1 453.2 846.5 453.2 848.9 453.2 851.2 453.2 853.6 453.2 856 473.7 858.3 453.2 860.7 453.2 863.1 453.2 865.5 453.2 867.8 453.2 870.2 453.2 872.6 473.7 875 453.2 877.3 453.2 879.7 453.2 882.1 453.2 884.4 473.7 886.8 453.2 889.2 453.2 891.6 371.4 893.9 269.2 896.3 248.8 898.7 187.4 901 167 903.4 167 905.8 146.6 908.2 146.6 910.5 126.1 912.9 126.1 915.3 126.1 917.6 126.1 920 105.7 922.4 126.1 924.8 105.7 927.1 126.1 929.5 105.7 931.9 105.7 934.3 126.1 936.6 105.7 939 105.7 941.4 105.7 943.7 126.1 946.1 105.7 948.5 105.7 950.9 105.7 953.2 105.7 955.6 105.7 958 105.7 960.3 105.7 962.7 105.7 965.1 105.7 967.5 85.2 969.8 105.7 972.2 105.7 974.6 105.7 976.9 85.2 979.3 105.7 981.7 105.7 984.1 85.2 986.4 105.7 988.8 85.2 991.2 105.7 993.6 85.2 995.9 105.7 998.3 85.2 1000.7 105.7 1003 85.2 1005.4 85.2 1007.8 105.7 1010.2 85.2 1012.5 85.2 1014.9 85.2 1017.3 85.2 1019.6 105.7 1022 85.2 1024.4 85.2 1026.8 85.2 1029.1 85.2 1031.5 85.2 1033.9 85.2 1036.2 85.2 1038.6 85.2 1041 85.2 1043.4 167 1045.7 289.7 1048.1 371.4 1050.5 351 1052.9 371.4 1055.2 351 1057.6 351 1060 351 1062.3 351 1064.7 351 1067.1 351 1069.5 351 1071.8 351 1074.2 351 1076.6 351 1078.9 351 1081.3 351 1083.7 351 1086.1 351 1086.1 351 1087.9 351" fill="none"/>
  </g>
  <g transform="matrix(1.0018 0 0 1.0018 949.7 60.608)" font-size="9" stroke="#000" stroke-linecap="square" stroke-linejoin="bevel">
   <text fill="#000000" font-family="Sans" font-size="9" font-weight="400" stroke="none" xml:space="preserve">substep</text>
  </g>
  <g transform="scale(1.0018)" font-size="10" stroke="#00f" stroke-linecap="round" stroke-linejoin="round">
   <path d="m1020.5 55.5h47" fill-rule="evenodd"/>
   <polyline points="95 351 96.9 351 99.3 351 101.7 351 104.1 351 106.4 351 108.8 351 111.2 351 113.5 351 115.9 351 118.3 351 120.7 351 123 351 125.4 351 127.8 351 130.1 351 132.5 351 134.9 411.5 137.3 452.3 139.6 473.6 142 488.8 144.4 499.8 146.7 508.2 149.1 515.5 151.5 519.9 153.9 523.4 156.2 525.1 158.6 526.9 161 529.7 163.4 530.3 165.7 532.8 168.1 532.3 170.5 533.6 172.8 533.7 175.2 535.4 177.6 534.6 180 535.8 182.3 536.3 184.7 535.9 187.1 537.3 189.4 537.1 191.8 537.6 194.2 537.7 196.6 537.9 198.9 539.6 201.3 538.4 203.7 539.2 206 540.7 208.4 540.4 210.8 540.3 213.2 540.7 215.5 540.7 217.9 540.8 220.3 541.2 222.7 541.8 225 542.1 227.4 541.6 229.8 542.7 232.1 542.4 234.5 541.9 236.9 541.5 239.3 543.5 241.6 543.2 244 542.8 246.4 543 248.7 542.8 251.1 542.7 253.5 542.1 255.9 543.3 258.2 543 260.6 542.8 263 542.6 265.3 542.7 267.7 543.4 270.1 543.8 272.5 543.5 274.8 543.3 277.2 544.7 279.6 543 282 544.3 284.3 555.1 286.7 572.9 289.1 585.9 291.4 593.9 293.8 599.9 296.2 604 298.6 606.2 300.9 606.2 303.3 607.5 305.7 609.5 308 608.7 310.4 608.4 312.8 609.2 315.2 610 317.5 610.8 319.9 609.7 322.3 612.2 324.6 611.4 327 613 329.4 612.4 331.8 612.9 334.1 611.6 336.5 613.3 338.9 612.6 341.3 612 343.6 613 346 614.1 348.4 613.1 350.7 612.1 353.1 613.8 355.5 612.3 357.9 612.9 360.2 611.3 362.6 612.4 365 612.1 367.3 614.2 369.7 613.1 372.1 612.8 374.5 613.5 376.8 614.6 379.2 613.3 381.6 616 383.9 614.9 386.3 616.4 388.7 616.5 391.1 615.6 393.4 616.8 395.8 615.7 398.2 615.2 400.6 616.2 402.9 616.5 405.3 614.5 407.7 616.4 410 615.4 412.4 614.8 414.8 615.8 417.2 615.4 419.5 617.4 421.9 616.9 424.3 616.8 426.6 618.2 429 616.6 431.4 618.5 433.8 617.1 436.1 594.6 438.5 550.2 440.9 520.4 443.2 498.1 445.6 482.7 448 471.7 450.4 465.6 452.7 461.3 455.1 458.4 457.5 456.3 459.9 454.6 462.2 453.2 464.6 454 467 452.9 469.3 452.7 471.7 453 474.1 452.6 476.5 451.7 478.8 453.8 481.2 452.3 483.6 452.7 485.9 452 488.3 453.3 490.7 452.3 493.1 453.7 495.4 452.8 497.8 453 500.2 453.6 502.5 453.5 504.9 453.2 507.3 452.8 509.7 454.5 512 453.9 514.4 453.9 516.8 454.3 519.2 454 521.5 453.2 523.9 455.7 526.3 454.2 528.6 454.5 531 454.6 533.4 455.3 535.8 454.9 538.1 453.9 540.5 456.3 542.9 454.8 545.2 455.1 547.6 455.1 550 455.7 552.4 455.8 554.7 454.7 557.1 457.2 559.5 455.5 561.8 456 564.2 455.9 566.6 456.3 569 456.2 571.3 456.4 573.7 455.8 576.1 457.2 578.5 456.6 580.8 456 583.2 456.8 585.6 456.3 587.9 480.2 590.3 523.4 592.7 551.3 595.1 570.4 597.4 583.7 599.8 592.1 602.2 597.9 604.5 602 606.9 603.8 609.3 605.1 611.7 606.2 614 606.9 616.4 607 618.8 606.4 621.1 607.8 623.5 607 625.9 607.3 628.3 607.3 630.6 608.3 633 608.7 635.4 607.9 637.8 607 640.1 609.1 642.5 608.7 644.9 608.3 647.2 609.2 649.6 608.3 652 608.5 654.4 608.3 656.7 607.9 659.1 609.7 661.5 608.8 663.8 608.9 666.2 608.6 668.6 609.6 671 610.1 673.3 609.8 675.7 608.9 678.1 610.9 680.4 609.6 682.8 610.5 685.2 609.6 687.6 610.5 689.9 610.5 692.3 610 694.7 611.9 697.1 610.8 699.4 610.9 701.8 611.7 704.2 611.7 706.5 611.4 708.9 610.2 711.3 611.8 713.7 610.1 716 611.1 718.4 610.5 720.8 611.4 723.1 611.3 725.5 612.4 727.9 611.9 730.3 612.2 732.6 612 735 612.7 737.4 612.8 739.7 588.8 742.1 545.9 744.5 515 746.9 495 749.2 479.7 751.6 470.6 754 465.5 756.4 460.7 758.7 457.2 761.1 456 763.5 454.3 765.8 454.7 768.2 453.5 770.6 452.1 773 453.9 775.3 452.3 777.7 452.6 780.1 452.2 782.4 453.3 784.8 452 787.2 453.5 789.6 452.8 791.9 452.9 794.3 453.1 796.7 452.9 799 452.3 801.4 454.6 803.8 453 806.2 453.4 808.5 453.3 810.9 454.6 813.3 453.9 815.7 452.3 818 454.7 820.4 453.2 822.8 453.5 825.1 453.1 827.5 454.4 829.9 453.3 832.3 455 834.6 454.5 837 453.6 839.4 454.3 841.7 454.1 844.1 455.1 846.5 453.9 848.9 455.3 851.2 454.5 853.6 454.7 856 455 858.3 454.6 860.7 455.6 863.1 454.4 865.5 455.8 867.8 454.9 870.2 454.9 872.6 455.1 875 454.9 877.3 456 879.7 454.8 882.1 456.3 884.4 455.9 886.8 455.3 889.2 455.9 891.6 372 893.9 285.6 896.3 238.2 898.7 200.5 901 178.4 903.4 162.4 905.8 150.5 908.2 142 910.5 135.3 912.9 130.5 915.3 127.1 917.6 124.1 920 121.4 922.4 119.2 924.8 118.4 927.1 117.9 929.5 116.5 931.9 115.5 934.3 114.8 936.6 114 939 113.2 941.4 112.7 943.7 111.8 946.1 111.4 948.5 110.7 950.9 110.1 953.2 109.2 955.6 108.5 958 107.7 960.3 107.1 962.7 106.3 965.1 105.7 967.5 105.2 969.8 104.4 972.2 103.8 974.6 103 976.9 102.3 979.3 102.1 981.7 101.3 984.1 100 986.4 99.7 988.8 99.7 991.2 98.8 993.6 98.2 995.9 97.7 998.3 96.5 1000.7 96.4 1003 95.9 1005.4 95.1 1007.8 94.4 1010.2 94 1012.5 93.4 1014.9 93 1017.3 92.2 1019.6 92 1022 92.1 1024.4 91.3 1026.8 89.9 1029.1 90.2 1031.5 89.2 1033.9 88.5 1036.2 88.3 1038.6 87.7 1041 87.1 1043.4 155.6 1045.7 273.6 1048.1 351 1050.5 351 1052.9 367.2 1055.2 359.9 1057.6 356.9 1060 351 1062.3 351 1064.7 351 1067.1 351 1069.5 351 1071.8 351 1074.2 351 1076.6 351 1078.9 351 1081.3 351 1083.7 351 1086.1 351 1086.1 351 1087.9 351" fill="none"/>
  </g>
  <g transform="scale(1.0018)" font-size="10" stroke="#000" stroke-linecap="round" stroke-linejoin="round">
   <polyline points="95.5 19.5 95.5 655.5 1087.5 655.5 1087.5 19.5 95.5 19.5" fill="none"/>
  </g>
 </g>
</svg>
