<?xml version="1.0" encoding="UTF-8"?>
<!DOCTYPE svg  PUBLIC '-//W3C//DTD SVG 1.1//EN'  'http://www.w3.org/Graphics/SVG/1.1/DTD/svg11.dtd'>
<svg width="257mm" height="145mm" stroke-linejoin="round" stroke-width="28.222" version="1.1" viewBox="0 0 25700 14500" xml:space="preserve" xmlns="http://www.w3.org/2000/svg">
 <path d="m12848 14509h-12858v-14519h25715v14519h-12857z" fill="#fff"/>
 <path d="m13071 13572h-11522v-13093h23045v13093h-11523z" fill="none" stroke="#b3b3b3" stroke-linejoin="round"/>
 <path d="m1549 478v13093" fill="none" stroke="#b3b3b3" stroke-linejoin="round"/>
 <path d="m3644 478v13093" fill="none" stroke="#b3b3b3" stroke-linejoin="round"/>
 <path d="m5739 478v13093" fill="none" stroke="#b3b3b3" stroke-linejoin="round"/>
 <path d="m7834 478v13093" fill="none" stroke="#b3b3b3" stroke-linejoin="round"/>
 <path d="m9929 478v13093" fill="none" stroke="#b3b3b3" stroke-linejoin="round"/>
 <path d="m12024 478v13093" fill="none" stroke="#b3b3b3" stroke-linejoin="round"/>
 <path d="m14118 478v13093" fill="none" stroke="#b3b3b3" stroke-linejoin="round"/>
 <path d="m16213 478v13093" fill="none" stroke="#b3b3b3" stroke-linejoin="round"/>
 <path d="m18308 478v13093" fill="none" stroke="#b3b3b3" stroke-linejoin="round"/>
 <path d="m20403 478v13093" fill="none" stroke="#b3b3b3" stroke-linejoin="round"/>
 <path d="m22498 478v13093" fill="none" stroke="#b3b3b3" stroke-linejoin="round"/>
 <path d="m24594 478v13093" fill="none" stroke="#b3b3b3" stroke-linejoin="round"/>
 <path d="m24594 13571h-23045" fill="none" stroke="#b3b3b3" stroke-linejoin="round"/>
 <path d="m24594 10952h-23045" fill="none" stroke="#b3b3b3" stroke-linejoin="round"/>
 <path d="m24594 8333h-23045" fill="none" stroke="#b3b3b3" stroke-linejoin="round"/>
 <path d="m24594 5715h-23045" fill="none" stroke="#b3b3b3" stroke-linejoin="round"/>
 <path d="m24594 3096h-23045" fill="none" stroke="#b3b3b3" stroke-linejoin="round"/>
 <path d="m24594 478h-23045" fill="none" stroke="#b3b3b3" stroke-linejoin="round"/>
 <path d="m1549 13721v-150" fill="none" stroke="#b3b3b3" stroke-linejoin="round"/>
 <path d="m1549 13721v-150" fill="none" stroke="#b3b3b3" stroke-linejoin="round"/>
 <path d="m3644 13721v-150" fill="none" stroke="#b3b3b3" stroke-linejoin="round"/>
 <path d="m3644 13721v-150" fill="none" stroke="#b3b3b3" stroke-linejoin="round"/>
 <path d="m5739 13721v-150" fill="none" stroke="#b3b3b3" stroke-linejoin="round"/>
 <path d="m5739 13721v-150" fill="none" stroke="#b3b3b3" stroke-linejoin="round"/>
 <path d="m7834 13721v-150" fill="none" stroke="#b3b3b3" stroke-linejoin="round"/>
 <path d="m7834 13721v-150" fill="none" stroke="#b3b3b3" stroke-linejoin="round"/>
 <path d="m9929 13721v-150" fill="none" stroke="#b3b3b3" stroke-linejoin="round"/>
 <path d="m9929 13721v-150" fill="none" stroke="#b3b3b3" stroke-linejoin="round"/>
 <path d="m12024 13721v-150" fill="none" stroke="#b3b3b3" stroke-linejoin="round"/>
 <path d="m12024 13721v-150" fill="none" stroke="#b3b3b3" stroke-linejoin="round"/>
 <path d="m14118 13721v-150" fill="none" stroke="#b3b3b3" stroke-linejoin="round"/>
 <path d="m14118 13721v-150" fill="none" stroke="#b3b3b3" stroke-linejoin="round"/>
 <path d="m16213 13721v-150" fill="none" stroke="#b3b3b3" stroke-linejoin="round"/>
 <path d="m16213 13721v-150" fill="none" stroke="#b3b3b3" stroke-linejoin="round"/>
 <path d="m18308 13721v-150" fill="none" stroke="#b3b3b3" stroke-linejoin="round"/>
 <path d="m18308 13721v-150" fill="none" stroke="#b3b3b3" stroke-linejoin="round"/>
 <path d="m20403 13721v-150" fill="none" stroke="#b3b3b3" stroke-linejoin="round"/>
 <path d="m20403 13721v-150" fill="none" stroke="#b3b3b3" stroke-linejoin="round"/>
 <path d="m22498 13721v-150" fill="none" stroke="#b3b3b3" stroke-linejoin="round"/>
 <path d="m22498 13721v-150" fill="none" stroke="#b3b3b3" stroke-linejoin="round"/>
 <path d="m24594 13721v-150" fill="none" stroke="#b3b3b3" stroke-linejoin="round"/>
 <path d="m24594 13721v-150" fill="none" stroke="#b3b3b3" stroke-linejoin="round"/>
 <path d="m1549 13571h23045" fill="none" stroke="#b3b3b3" stroke-linejoin="round"/>
 <path d="m1399 13571h150" fill="none" stroke="#b3b3b3" stroke-linejoin="round"/>
 <path d="m1399 13571h150" fill="none" stroke="#b3b3b3" stroke-linejoin="round"/>
 <path d="m1399 10952h150" fill="none" stroke="#b3b3b3" stroke-linejoin="round"/>
 <path d="m1399 10952h150" fill="none" stroke="#b3b3b3" stroke-linejoin="round"/>
 <path d="m1399 8333h150" fill="none" stroke="#b3b3b3" stroke-linejoin="round"/>
 <path d="m1399 8333h150" fill="none" stroke="#b3b3b3" stroke-linejoin="round"/>
 <path d="m1399 5715h150" fill="none" stroke="#b3b3b3" stroke-linejoin="round"/>
 <path d="m1399 5715h150" fill="none" stroke="#b3b3b3" stroke-linejoin="round"/>
 <path d="m1399 3096h150" fill="none" stroke="#b3b3b3" stroke-linejoin="round"/>
 <path d="m1399 3096h150" fill="none" stroke="#b3b3b3" stroke-linejoin="round"/>
 <path d="m1399 478h150" fill="none" stroke="#b3b3b3" stroke-linejoin="round"/>
 <path d="m1399 478h150" fill="none" stroke="#b3b3b3" stroke-linejoin="round"/>
 <path d="m1549 13571v-13093" fill="none" stroke="#b3b3b3" stroke-linejoin="round"/>
 <path d="m5967 10952 2870-583 2971-1300 1579-736 1393-583 2512-1298 2114-1320 2070-1299" fill="none" stroke="#ffd320" stroke-linejoin="round" stroke-width="80"/>
 <path d="m5842 10827 125 250 125-250h-250z" fill="#ffd320"/>
 <path d="m5842 10827 125 250 125-250h-250z" fill="none" stroke="#ffd320" stroke-linejoin="round"/>
 <path d="m8712 10244 125 250 125-250h-250z" fill="#ffd320"/>
 <path d="m8712 10244 125 250 125-250h-250z" fill="none" stroke="#ffd320" stroke-linejoin="round"/>
 <path d="m11683 8944 125 250 125-250h-250z" fill="#ffd320"/>
 <path d="m11683 8944 125 250 125-250h-250z" fill="none" stroke="#ffd320" stroke-linejoin="round"/>
 <path d="m13262 8208 125 250 125-250h-250z" fill="#ffd320"/>
 <path d="m13262 8208 125 250 125-250h-250z" fill="none" stroke="#ffd320" stroke-linejoin="round"/>
 <path d="m14655 7625 125 250 125-250h-250z" fill="#ffd320"/>
 <path d="m14655 7625 125 250 125-250h-250z" fill="none" stroke="#ffd320" stroke-linejoin="round"/>
 <path d="m17167 6327 125 250 125-250h-250z" fill="#ffd320"/>
 <path d="m17167 6327 125 250 125-250h-250z" fill="none" stroke="#ffd320" stroke-linejoin="round"/>
 <path d="m19281 5007 125 250 125-250h-250z" fill="#ffd320"/>
 <path d="m19281 5007 125 250 125-250h-250z" fill="none" stroke="#ffd320" stroke-linejoin="round"/>
 <path d="m21351 3708 125 250 125-250h-250z" fill="#ffd320"/>
 <path d="m21351 3708 125 250 125-250h-250z" fill="none" stroke="#ffd320" stroke-linejoin="round"/>
 <path d="m1549 10952h2095 2095 228l1867-583h1003l1092-737 1879-563 216-736h1363l731-583h662l1433-736 1079-562 1016-737 1098-583 997-737 1073-562 1022-737" fill="none" stroke="#ff420e" stroke-linejoin="round"/>
 <path d="m1424 10952 125 125 125-125-125-125-125 125z" fill="#ff420e"/>
 <path d="m1424 10952 125 125 125-125-125-125-125 125z" fill="none" stroke="#ff420e" stroke-linejoin="round"/>
 <path d="m3519 10952 125 125 125-125-125-125-125 125z" fill="#ff420e"/>
 <path d="m3519 10952 125 125 125-125-125-125-125 125z" fill="none" stroke="#ff420e" stroke-linejoin="round"/>
 <path d="m5614 10952 125 125 125-125-125-125-125 125z" fill="#ff420e"/>
 <path d="m5614 10952 125 125 125-125-125-125-125 125z" fill="none" stroke="#ff420e" stroke-linejoin="round"/>
 <path d="m5842 10952 125 125 125-125-125-125-125 125z" fill="#ff420e"/>
 <path d="m5842 10952 125 125 125-125-125-125-125 125z" fill="none" stroke="#ff420e" stroke-linejoin="round"/>
 <path d="m7709 10369 125 125 125-125-125-125-125 125z" fill="#ff420e"/>
 <path d="m7709 10369 125 125 125-125-125-125-125 125z" fill="none" stroke="#ff420e" stroke-linejoin="round"/>
 <path d="m8712 10369 125 125 125-125-125-125-125 125z" fill="#ff420e"/>
 <path d="m8712 10369 125 125 125-125-125-125-125 125z" fill="none" stroke="#ff420e" stroke-linejoin="round"/>
 <path d="m9804 9632 125 125 125-125-125-125-125 125z" fill="#ff420e"/>
 <path d="m9804 9632 125 125 125-125-125-125-125 125z" fill="none" stroke="#ff420e" stroke-linejoin="round"/>
 <path d="m11683 9069 125 125 125-125-125-125-125 125z" fill="#ff420e"/>
 <path d="m11683 9069 125 125 125-125-125-125-125 125z" fill="none" stroke="#ff420e" stroke-linejoin="round"/>
 <path d="m11899 8333 125 125 125-125-125-125-125 125z" fill="#ff420e"/>
 <path d="m11899 8333 125 125 125-125-125-125-125 125z" fill="none" stroke="#ff420e" stroke-linejoin="round"/>
 <path d="m13262 8333 125 125 125-125-125-125-125 125z" fill="#ff420e"/>
 <path d="m13262 8333 125 125 125-125-125-125-125 125z" fill="none" stroke="#ff420e" stroke-linejoin="round"/>
 <path d="m13993 7750 125 125 125-125-125-125-125 125z" fill="#ff420e"/>
 <path d="m13993 7750 125 125 125-125-125-125-125 125z" fill="none" stroke="#ff420e" stroke-linejoin="round"/>
 <path d="m14655 7750 125 125 125-125-125-125-125 125z" fill="#ff420e"/>
 <path d="m14655 7750 125 125 125-125-125-125-125 125z" fill="none" stroke="#ff420e" stroke-linejoin="round"/>
 <path d="m16088 7014 125 125 125-125-125-125-125 125z" fill="#ff420e"/>
 <path d="m16088 7014 125 125 125-125-125-125-125 125z" fill="none" stroke="#ff420e" stroke-linejoin="round"/>
 <path d="m17167 6452 125 125 125-125-125-125-125 125z" fill="#ff420e"/>
 <path d="m17167 6452 125 125 125-125-125-125-125 125z" fill="none" stroke="#ff420e" stroke-linejoin="round"/>
 <path d="m18183 5715 125 125 125-125-125-125-125 125z" fill="#ff420e"/>
 <path d="m18183 5715 125 125 125-125-125-125-125 125z" fill="none" stroke="#ff420e" stroke-linejoin="round"/>
 <path d="m19281 5132 125 125 125-125-125-125-125 125z" fill="#ff420e"/>
 <path d="m19281 5132 125 125 125-125-125-125-125 125z" fill="none" stroke="#ff420e" stroke-linejoin="round"/>
 <path d="m20278 4395 125 125 125-125-125-125-125 125z" fill="#ff420e"/>
 <path d="m20278 4395 125 125 125-125-125-125-125 125z" fill="none" stroke="#ff420e" stroke-linejoin="round"/>
 <path d="m21351 3833 125 125 125-125-125-125-125 125z" fill="#ff420e"/>
 <path d="m21351 3833 125 125 125-125-125-125-125 125z" fill="none" stroke="#ff420e" stroke-linejoin="round"/>
 <path d="m22373 3096 125 125 125-125-125-125-125 125z" fill="#ff420e"/>
 <path d="m22373 3096 125 125 125-125-125-125-125 125z" fill="none" stroke="#ff420e" stroke-linejoin="round"/>
 <path d="m1549 11688h2095 2095l228-736h1867l1003-583h1092l1879-1300h216l1363-736h731l662-583h1433l1079-1298h1016l1098-1320h997l1073-1299h1022" fill="none" stroke="#004586" stroke-linejoin="round"/>
 <path d="m1424 11688 125 125 125-125-125-125-125 125z" fill="#004586"/>
 <path d="m1424 11688 125 125 125-125-125-125-125 125z" fill="none" stroke="#004586" stroke-linejoin="round"/>
 <path d="m3519 11688 125 125 125-125-125-125-125 125z" fill="#004586"/>
 <path d="m3519 11688 125 125 125-125-125-125-125 125z" fill="none" stroke="#004586" stroke-linejoin="round"/>
 <path d="m5614 11688 125 125 125-125-125-125-125 125z" fill="#004586"/>
 <path d="m5614 11688 125 125 125-125-125-125-125 125z" fill="none" stroke="#004586" stroke-linejoin="round"/>
 <path d="m5842 10952 125 125 125-125-125-125-125 125z" fill="#004586"/>
 <path d="m5842 10952 125 125 125-125-125-125-125 125z" fill="none" stroke="#004586" stroke-linejoin="round"/>
 <path d="m7709 10952 125 125 125-125-125-125-125 125z" fill="#004586"/>
 <path d="m7709 10952 125 125 125-125-125-125-125 125z" fill="none" stroke="#004586" stroke-linejoin="round"/>
 <path d="m8712 10369 125 125 125-125-125-125-125 125z" fill="#004586"/>
 <path d="m8712 10369 125 125 125-125-125-125-125 125z" fill="none" stroke="#004586" stroke-linejoin="round"/>
 <path d="m9804 10369 125 125 125-125-125-125-125 125z" fill="#004586"/>
 <path d="m9804 10369 125 125 125-125-125-125-125 125z" fill="none" stroke="#004586" stroke-linejoin="round"/>
 <path d="m11683 9069 125 125 125-125-125-125-125 125z" fill="#004586"/>
 <path d="m11683 9069 125 125 125-125-125-125-125 125z" fill="none" stroke="#004586" stroke-linejoin="round"/>
 <path d="m11899 9069 125 125 125-125-125-125-125 125z" fill="#004586"/>
 <path d="m11899 9069 125 125 125-125-125-125-125 125z" fill="none" stroke="#004586" stroke-linejoin="round"/>
 <path d="m13262 8333 125 125 125-125-125-125-125 125z" fill="#004586"/>
 <path d="m13262 8333 125 125 125-125-125-125-125 125z" fill="none" stroke="#004586" stroke-linejoin="round"/>
 <path d="m13993 8333 125 125 125-125-125-125-125 125z" fill="#004586"/>
 <path d="m13993 8333 125 125 125-125-125-125-125 125z" fill="none" stroke="#004586" stroke-linejoin="round"/>
 <path d="m14655 7750 125 125 125-125-125-125-125 125z" fill="#004586"/>
 <path d="m14655 7750 125 125 125-125-125-125-125 125z" fill="none" stroke="#004586" stroke-linejoin="round"/>
 <path d="m16088 7750 125 125 125-125-125-125-125 125z" fill="#004586"/>
 <path d="m16088 7750 125 125 125-125-125-125-125 125z" fill="none" stroke="#004586" stroke-linejoin="round"/>
 <path d="m17167 6452 125 125 125-125-125-125-125 125z" fill="#004586"/>
 <path d="m17167 6452 125 125 125-125-125-125-125 125z" fill="none" stroke="#004586" stroke-linejoin="round"/>
 <path d="m18183 6452 125 125 125-125-125-125-125 125z" fill="#004586"/>
 <path d="m18183 6452 125 125 125-125-125-125-125 125z" fill="none" stroke="#004586" stroke-linejoin="round"/>
 <path d="m19281 5132 125 125 125-125-125-125-125 125z" fill="#004586"/>
 <path d="m19281 5132 125 125 125-125-125-125-125 125z" fill="none" stroke="#004586" stroke-linejoin="round"/>
 <path d="m20278 5132 125 125 125-125-125-125-125 125z" fill="#004586"/>
 <path d="m20278 5132 125 125 125-125-125-125-125 125z" fill="none" stroke="#004586" stroke-linejoin="round"/>
 <path d="m21351 3833 125 125 125-125-125-125-125 125z" fill="#004586"/>
 <path d="m21351 3833 125 125 125-125-125-125-125 125z" fill="none" stroke="#004586" stroke-linejoin="round"/>
 <path d="m22373 3833 125 125 125-125-125-125-125 125z" fill="#004586"/>
 <path d="m22373 3833 125 125 125-125-125-125-125 125z" fill="none" stroke="#004586" stroke-linejoin="round"/>
 <text class="SVGTextShape"><tspan class="TextParagraph" font-family="Liberation Sans, sans-serif" font-size="353px" font-weight="400"><tspan class="TextPosition" x="1450" y="14139"><tspan fill="rgb(0,0,0)" style="white-space:pre">0</tspan></tspan></tspan></text>
 <text class="SVGTextShape"><tspan class="TextParagraph" font-family="Liberation Sans, sans-serif" font-size="353px" font-weight="400"><tspan class="TextPosition" x="3148" y="14139"><tspan fill="rgb(0,0,0)" style="white-space:pre">10000</tspan></tspan></tspan></text>
 <text class="SVGTextShape"><tspan class="TextParagraph" font-family="Liberation Sans, sans-serif" font-size="353px" font-weight="400"><tspan class="TextPosition" x="5243" y="14139"><tspan fill="rgb(0,0,0)" style="white-space:pre">20000</tspan></tspan></tspan></text>
 <text class="SVGTextShape"><tspan class="TextParagraph" font-family="Liberation Sans, sans-serif" font-size="353px" font-weight="400"><tspan class="TextPosition" x="7338" y="14139"><tspan fill="rgb(0,0,0)" style="white-space:pre">30000</tspan></tspan></tspan></text>
 <text class="SVGTextShape"><tspan class="TextParagraph" font-family="Liberation Sans, sans-serif" font-size="353px" font-weight="400"><tspan class="TextPosition" x="9433" y="14139"><tspan fill="rgb(0,0,0)" style="white-space:pre">40000</tspan></tspan></tspan></text>
 <text class="SVGTextShape"><tspan class="TextParagraph" font-family="Liberation Sans, sans-serif" font-size="353px" font-weight="400"><tspan class="TextPosition" x="11528" y="14139"><tspan fill="rgb(0,0,0)" style="white-space:pre">50000</tspan></tspan></tspan></text>
 <text class="SVGTextShape"><tspan class="TextParagraph" font-family="Liberation Sans, sans-serif" font-size="353px" font-weight="400"><tspan class="TextPosition" x="13623" y="14139"><tspan fill="rgb(0,0,0)" style="white-space:pre">60000</tspan></tspan></tspan></text>
 <text class="SVGTextShape"><tspan class="TextParagraph" font-family="Liberation Sans, sans-serif" font-size="353px" font-weight="400"><tspan class="TextPosition" x="15718" y="14139"><tspan fill="rgb(0,0,0)" style="white-space:pre">70000</tspan></tspan></tspan></text>
 <text class="SVGTextShape"><tspan class="TextParagraph" font-family="Liberation Sans, sans-serif" font-size="353px" font-weight="400"><tspan class="TextPosition" x="17813" y="14139"><tspan fill="rgb(0,0,0)" style="white-space:pre">80000</tspan></tspan></tspan></text>
 <text class="SVGTextShape"><tspan class="TextParagraph" font-family="Liberation Sans, sans-serif" font-size="353px" font-weight="400"><tspan class="TextPosition" x="19908" y="14139"><tspan fill="rgb(0,0,0)" style="white-space:pre">90000</tspan></tspan></tspan></text>
 <text class="SVGTextShape"><tspan class="TextParagraph" font-family="Liberation Sans, sans-serif" font-size="353px" font-weight="400"><tspan class="TextPosition" x="21903" y="14139"><tspan fill="rgb(0,0,0)" style="white-space:pre">100000</tspan></tspan></tspan></text>
 <text class="SVGTextShape"><tspan class="TextParagraph" font-family="Liberation Sans, sans-serif" font-size="353px" font-weight="400"><tspan class="TextPosition" x="23999" y="14139"><tspan fill="rgb(0,0,0)" style="white-space:pre">110000</tspan></tspan></tspan></text>
 <text class="SVGTextShape"><tspan class="TextParagraph" font-family="Liberation Sans, sans-serif" font-size="353px" font-weight="400"><tspan class="TextPosition" x="1101" y="13692"><tspan fill="rgb(0,0,0)" style="white-space:pre">0</tspan></tspan></tspan></text>
 <text class="SVGTextShape"><tspan class="TextParagraph" font-family="Liberation Sans, sans-serif" font-size="353px" font-weight="400"><tspan class="TextPosition" x="704" y="11073"><tspan fill="rgb(0,0,0)" style="white-space:pre">256</tspan></tspan></tspan></text>
 <text class="SVGTextShape"><tspan class="TextParagraph" font-family="Liberation Sans, sans-serif" font-size="353px" font-weight="400"><tspan class="TextPosition" x="704" y="8454"><tspan fill="rgb(0,0,0)" style="white-space:pre">512</tspan></tspan></tspan></text>
 <text class="SVGTextShape"><tspan class="TextParagraph" font-family="Liberation Sans, sans-serif" font-size="353px" font-weight="400"><tspan class="TextPosition" x="704" y="5835"><tspan fill="rgb(0,0,0)" style="white-space:pre">768</tspan></tspan></tspan></text>
 <text class="SVGTextShape"><tspan class="TextParagraph" font-family="Liberation Sans, sans-serif" font-size="353px" font-weight="400"><tspan class="TextPosition" x="505" y="3216"><tspan fill="rgb(0,0,0)" style="white-space:pre">1024</tspan></tspan></tspan></text>
 <text class="SVGTextShape"><tspan class="TextParagraph" font-family="Liberation Sans, sans-serif" font-size="353px" font-weight="400"><tspan class="TextPosition" x="505" y="598"><tspan fill="rgb(0,0,0)" style="white-space:pre">1280</tspan></tspan></tspan></text>
</svg>
